# xmcd
#
# Track frame offsets: 
#        150
#        33950
#        56031
#        88124
#        121939
#        143820
#        171276
#        198827
#        223768
#
# Disc length: 3329 seconds
#
# Revision: 4
# Processed by: cddbd v1.5.2PL0 Copyright (c) Steve Scherf et al.
# Submitted via: ExactAudioCopy v1.0b1
#
DISCID=7f0cff09
DTITLE=Various Artist - Джаз по-русски
DYEAR=2004
DGENRE=Jazz
TTITLE0=Алекс Ростоцкий - Сад камней
TTITLE1=Роман Столяр - Блюз
TTITLE2=Гайворонский-Кондаков-Волков - Вальс
TTITLE3=Олег Киреев - Ai ya Haiya
TTITLE4=Второе приближение - Два настроения
TTITLE5=Владимир Галактионов при участии Игоря Бутмана - Don't Hurry
TTITLE6=Леонид Винцкевич - Autumn Song
TTITLE7=New A - Love And Gold
TTITLE8=Omnium Band  - Sunrise Strip
EXTD=YEAR: 2004
EXTT0=
EXTT1=
EXTT2=
EXTT3=
EXTT4=
EXTT5=
EXTT6=
EXTT7=
EXTT8=
PLAYORDER=
